<?xml version="1.0" encoding="utf-8"?>
<!-- Generator: Adobe Illustrator 25.3.1, SVG Export Plug-In . SVG Version: 6.00 Build 0)  -->
<svg version="1.1" id="组_5" xmlns="http://www.w3.org/2000/svg" xmlns:xlink="http://www.w3.org/1999/xlink" x="0px" y="0px"
	 viewBox="0 0 143 20" style="enable-background:new 0 0 143 20;" xml:space="preserve">
<style type="text/css">
	.st0{display:none;fill-rule:evenodd;clip-rule:evenodd;}
</style>
<path id="PowerVision" class="st0" d="M0,19.7h3.4v-8.1h2.4c1,0,1.9-0.1,2.9-0.2c0.9-0.1,1.7-0.4,2.4-0.8c0.7-0.4,1.3-1,1.7-1.7
	c0.4-0.9,0.7-1.9,0.6-3c0-0.9-0.2-1.9-0.6-2.7c-0.4-0.7-0.9-1.3-1.5-1.7C10.5,1,9.8,0.6,9,0.5C8.1,0.3,7.2,0.2,6.4,0.2H0V19.7z
	 M3.4,8.6V3.2h2.4c0.5,0,0.9,0,1.4,0.1c0.5,0,0.9,0.2,1.3,0.4c0.4,0.2,0.7,0.5,1,0.8c0.3,0.4,0.4,0.9,0.4,1.4c0,0.5-0.1,1.1-0.4,1.5
	C9.1,7.8,8.7,8.1,8.3,8.3C7.9,8.4,7.4,8.6,6.9,8.6c-0.5,0-1,0.1-1.5,0.1L3.4,8.6L3.4,8.6z M33.5,19.7h3.3l2.7-9h0.1l3,9h3.2
	l4.4-13.2h-3.2l-2.7,9.2h-0.1l-2.8-9.2h-3.5l-2.6,9.2h-0.1l-2.8-9.2H29L33.5,19.7z M63.6,14.2v-0.9c0-1-0.1-2.1-0.4-3.1
	c-0.3-0.8-0.7-1.6-1.2-2.2c-0.5-0.6-1.2-1.1-1.9-1.4c-0.8-0.3-1.6-0.5-2.4-0.5c-0.9,0-1.9,0.2-2.7,0.5C54,6.9,53.3,7.4,52.6,8
	c-0.6,0.6-1.1,1.4-1.5,2.2c-0.7,1.8-0.7,3.9,0,5.7c0.3,0.8,0.8,1.6,1.5,2.2c0.6,0.6,1.4,1.1,2.2,1.4c0.9,0.3,1.8,0.5,2.7,0.5
	c1,0,2-0.2,2.9-0.6c1-0.5,1.9-1.2,2.5-2l-2.3-1.8c-0.4,0.5-0.9,0.9-1.4,1.3c-0.6,0.4-1.3,0.5-2,0.5c-0.9,0-1.7-0.3-2.3-0.8
	c-0.7-0.6-1.1-1.4-1.1-2.3H63.6L63.6,14.2z M53.8,11.7c0.1-0.9,0.4-1.7,1-2.3c0.6-0.6,1.4-0.9,2.3-0.9c0.9-0.1,1.7,0.3,2.4,0.8
	c0.6,0.6,0.9,1.4,0.9,2.3H53.8z M65.8,19.7H69v-7.1c0-0.3,0.1-0.6,0.1-0.8c0.2-0.9,0.8-1.6,1.5-2.1c0.6-0.3,1.2-0.5,1.8-0.4
	c0.3,0,0.5,0,0.8,0.1c0.3,0,0.5,0.1,0.8,0.2V6.3c-0.2-0.1-0.4-0.1-0.6-0.1c-0.2,0-0.4-0.1-0.6-0.1c-1.6,0-3.1,0.9-3.8,2.4H69V6.5
	h-3.2L65.8,19.7L65.8,19.7z M80.9,19.7h2.9l7.6-19.5h-3.6l-5.3,14.7L77.4,0.2h-3.9L80.9,19.7z M92.5,19.7h3.2V6.5h-3.2V19.7
	L92.5,19.7z M92.6,3.4C93,3.8,93.5,4,94,4c0.5,0,1.1-0.2,1.5-0.6c0.8-0.8,0.8-2,0.1-2.8c0,0,0,0-0.1-0.1C95.1,0.2,94.6,0,94,0
	c-0.5,0-1.1,0.2-1.5,0.6C91.8,1.4,91.8,2.6,92.6,3.4C92.6,3.4,92.6,3.4,92.6,3.4L92.6,3.4z M107.6,8.1c-0.5-0.7-1.2-1.3-2-1.6
	c-1.4-0.5-3-0.6-4.4-0.2c-0.6,0.2-1.2,0.4-1.7,0.8c-1,0.7-1.6,2-1.6,3.2c0,0.7,0.1,1.4,0.5,2c0.3,0.5,0.8,0.9,1.3,1.1
	c0.5,0.3,1.1,0.5,1.7,0.6c0.6,0.1,1.2,0.2,1.7,0.4c0.5,0.1,0.9,0.3,1.3,0.5c0.3,0.2,0.5,0.6,0.5,1c0,0.2-0.1,0.5-0.2,0.7
	c-0.1,0.2-0.3,0.4-0.5,0.5c-0.2,0.1-0.4,0.2-0.7,0.3c-0.2,0.1-0.5,0.1-0.7,0.1c-0.6,0-1.2-0.1-1.7-0.5c-0.5-0.3-0.9-0.7-1.3-1.2
	L97.4,18c0.6,0.7,1.4,1.3,2.2,1.6c0.9,0.3,1.8,0.4,2.8,0.4c0.7,0,1.3-0.1,2-0.2c0.6-0.1,1.2-0.4,1.8-0.7c0.5-0.3,1-0.8,1.3-1.3
	c0.3-0.6,0.5-1.3,0.5-2c0-0.7-0.1-1.4-0.5-2c-0.3-0.5-0.8-0.9-1.3-1.2c-0.5-0.3-1.1-0.5-1.7-0.6c-0.6-0.1-1.2-0.3-1.7-0.4
	c-0.4-0.1-0.9-0.3-1.3-0.5c-0.3-0.2-0.5-0.5-0.5-0.9c0-0.4,0.2-0.9,0.6-1.1c0.4-0.2,0.8-0.3,1.3-0.3c1,0,2,0.5,2.5,1.3L107.6,8.1z
	 M109.7,19.7h3.2V6.5h-3.2L109.7,19.7L109.7,19.7z M109.8,3.4c0.4,0.4,0.9,0.6,1.5,0.6c0.5,0,1.1-0.2,1.5-0.6c0.8-0.8,0.8-2,0.1-2.8
	c0,0,0,0-0.1-0.1c-0.4-0.4-0.9-0.6-1.5-0.6c-0.5,0-1.1,0.2-1.5,0.6C109,1.4,109,2.6,109.8,3.4L109.8,3.4z M115.7,15.9
	c0.3,0.8,0.8,1.6,1.5,2.2c0.6,0.6,1.4,1.1,2.2,1.4c1.8,0.7,3.7,0.7,5.5,0c0.8-0.3,1.6-0.8,2.2-1.4c0.6-0.6,1.1-1.4,1.5-2.2
	c0.7-1.8,0.7-3.9,0-5.7c-0.3-0.8-0.8-1.6-1.5-2.2c-0.6-0.6-1.4-1.1-2.2-1.4c-1.8-0.7-3.7-0.7-5.5,0c-0.8,0.3-1.6,0.8-2.2,1.4
	c-0.6,0.6-1.1,1.4-1.5,2.2C115,12,115,14.1,115.7,15.9L115.7,15.9z M118.6,11.6c0.3-0.9,1-1.7,1.9-2.1c1-0.4,2.1-0.4,3.2,0
	c0.9,0.4,1.6,1.2,1.9,2.1c0.3,1,0.3,2,0,3c-0.3,0.9-1,1.7-1.9,2.1c-1,0.4-2.1,0.4-3.2,0c-0.9-0.4-1.6-1.2-1.9-2.1
	C118.3,13.6,118.3,12.5,118.6,11.6L118.6,11.6z M131.3,19.7h3.2v-7.2c0-0.4,0.1-0.9,0.2-1.3c0.1-0.4,0.3-0.8,0.5-1.1
	c0.2-0.3,0.6-0.6,0.9-0.7c0.4-0.2,0.9-0.3,1.4-0.3c0.5,0,0.9,0.1,1.3,0.4c0.3,0.3,0.6,0.6,0.7,1c0.2,0.4,0.2,0.8,0.3,1.3
	c0,0.4,0.1,0.9,0.1,1.2v6.7h3.2v-8.3c0-0.7-0.1-1.3-0.2-2c-0.1-0.6-0.4-1.2-0.8-1.6c-0.4-0.5-0.9-0.9-1.5-1.2
	c-0.7-0.3-1.4-0.5-2.2-0.4c-0.9,0-1.8,0.2-2.5,0.7c-0.6,0.5-1.1,1-1.4,1.7h-0.1V6.5h-3.1V19.7z"/>
<path id="PowerVision_拷贝" class="st0" d="M15.1,15.9c0.3,0.8,0.8,1.6,1.5,2.2c0.6,0.6,1.4,1.1,2.2,1.4c1.8,0.7,3.7,0.7,5.5,0
	c0.8-0.3,1.6-0.8,2.2-1.4c0.6-0.6,1.1-1.4,1.5-2.2c0.7-1.8,0.7-3.9,0-5.7c-0.3-0.8-0.8-1.6-1.5-2.2c-0.6-0.6-1.4-1.1-2.2-1.4
	c-1.8-0.7-3.7-0.7-5.5,0C18,6.9,17.3,7.4,16.6,8c-0.6,0.6-1.1,1.4-1.5,2.2C14.4,12,14.4,14.1,15.1,15.9z M18.1,11.6
	c0.3-0.9,1-1.7,1.9-2.1c1-0.4,2.1-0.4,3.2,0c0.9,0.4,1.6,1.2,1.9,2.1c0.3,1,0.3,2,0,3c-0.3,0.9-1,1.7-1.9,2.1c-1,0.4-2.1,0.4-3.2,0
	c-0.9-0.4-1.6-1.2-1.9-2.1C17.7,13.6,17.7,12.5,18.1,11.6z"/>
<image style="display:none;overflow:visible;" width="600" height="167" xlink:href="../../../../../Downloads/roborock-logo.png"  transform="matrix(1 0 0 1 -22.6182 20)">
</image>
<path d="M9.6,0.4C4.3,0.4,0,4.7,0,10c0,5.3,4.3,9.6,9.6,9.6s9.6-4.3,9.6-9.6C19.3,4.7,14.9,0.4,9.6,0.4z M14.7,14.8H4.5
	c-0.3,0-0.6-0.3-0.6-0.6c0-0.1,0-0.3,0.1-0.4l0,0l0,0c0,0,0.1-0.1,0.1-0.1l7.5-7.4H5.5l1.1-1.1h6.6c0.3,0,0.6,0.3,0.6,0.6
	c0,0.1,0,0.2-0.1,0.3l0,0l0,0c0,0.1-0.1,0.1-0.2,0.2l-7.4,7.3h7l-2.8-2.8l0.9-0.9c0,0,3.8,3.7,3.8,3.8c0,0,0,0,0,0
	c0.1,0.1,0.2,0.3,0.2,0.5C15.3,14.5,15,14.8,14.7,14.8z"/>
<g>
	<path d="M26.1,14.1c0,0.3-0.3,0.5-0.6,0.5c-0.3,0-0.6-0.2-0.6-0.4c0-0.1-0.1-3.7-0.1-3.7l0,0l0,0c0.2-2.3,1.9-4.2,4.3-4.2
		c2.4,0,3.9,0,3.9,0c0.3,0,0.5,0.3,0.5,0.6c0,0.3-0.2,0.6-0.5,0.6c0,0-2.3,0-3.9,0c-1.6,0-3,1.3-3,3C26.1,11.9,26.1,13.7,26.1,14.1
		C26.1,14,26.1,14.1,26.1,14.1z"/>
	<path d="M34.9,10.3c0-2.3,2-4.2,4.5-4.2s4.5,1.9,4.5,4.2c0,2.3-2,4.2-4.5,4.2S34.9,12.7,34.9,10.3z M36.2,10.3
		c0,1.5,1.5,2.9,3.3,2.9c1.8,0,3.3-1.4,3.3-2.9c0-1.5-1.5-2.9-3.3-2.9C37.6,7.5,36.2,8.8,36.2,10.3z"/>
	<path d="M45.4,4.3c0-0.2,0.4-0.2,0.6-0.2c0.2,0,0.6,0,0.6,0.2l0,3.2c0.8-0.8,2-1.3,3.3-1.3c2.5,0,4.5,1.9,4.5,4.2
		c0,2.3-2,4.2-4.5,4.2c-2.5,0-4.5-1.9-4.5-4.2L45.4,4.3z M53.2,10.3c0-1.5-1.5-2.9-3.3-2.9c-1.8,0-3.3,1.4-3.3,2.9
		c0,1.5,1.5,2.9,3.3,2.9C51.7,13.2,53.2,11.9,53.2,10.3z"/>
	<path d="M55.9,10.3c0-2.3,2-4.2,4.5-4.2S65,8,65,10.3c0,2.3-2,4.2-4.5,4.2S55.9,12.7,55.9,10.3z M57.2,10.3c0,1.5,1.5,2.9,3.3,2.9
		s3.3-1.4,3.3-2.9c0-1.5-1.5-2.9-3.3-2.9C58.6,7.5,57.2,8.8,57.2,10.3z"/>
	<path d="M67.7,14.1c0,0.3-0.3,0.5-0.6,0.5c-0.3,0-0.6-0.2-0.6-0.4c0-0.1-0.1-3.7-0.1-3.7l0,0l0,0c0.2-2.3,1.9-4.2,4.3-4.2
		c2.4,0,3.9,0,3.9,0c0.3,0,0.5,0.3,0.5,0.6c0,0.3-0.2,0.6-0.5,0.6c0,0-2.3,0-3.9,0c-1.6,0-3,1.3-3,3C67.6,11.9,67.7,13.7,67.7,14.1
		C67.7,14,67.7,14.1,67.7,14.1z"/>
	<path d="M76.4,10.3c0-2.3,2-4.2,4.5-4.2c2.5,0,4.5,1.9,4.5,4.2c0,2.3-2,4.2-4.5,4.2C78.4,14.5,76.4,12.7,76.4,10.3z M77.7,10.3
		c0,1.5,1.5,2.9,3.3,2.9c1.8,0,3.3-1.4,3.3-2.9c0-1.5-1.5-2.9-3.3-2.9C79.1,7.5,77.7,8.8,77.7,10.3z"/>
	<path d="M95.1,6.2c0.3,0,0.5,0.3,0.5,0.6c0,0.3-0.2,0.6-0.5,0.6c0,0-2.3,0-3.9,0c-1.6,0-3,1.3-3,2.9s1.4,2.9,3.1,2.9
		c1.6,0,3.9,0,3.9,0c0.3,0,0.5,0.3,0.5,0.6s-0.2,0.6-0.5,0.6c0,0-1.6,0-3.9,0c-2.5,0-4.4-1.9-4.4-4.2c0-2.3,1.9-4.2,4.3-4.2
		C93.5,6.2,95.1,6.2,95.1,6.2z"/>
	<path d="M103.9,14.3c0,0.2-0.2,0.3-0.5,0.3c-0.4,0-0.8-0.2-1-0.4l-2-3.2l-2.1,3.2c-0.1,0.2-0.6,0.4-1,0.4c-0.3,0-0.4-0.1-0.5-0.2
		c-0.1-0.1-0.1-0.1-0.1-0.2c0,0,0-8,0-8.1c0-0.2,0.3-0.4,0.6-0.4c0.3,0,0.6,0.2,0.6,0.4v6.2c0.5-0.8,1.1-1.8,1.7-2.7
		c0-0.1,0.1-0.2,0.2-0.3c1.1-1.7,2-3.2,2-3.2c0.2-0.2,0.6-0.4,1-0.4c0.1,0,0.3,0,0.4,0.1c0.2,0.1,0.2,0.2,0.1,0.4l-2.2,3.5
		c0.3,0.4,2.6,4.4,2.6,4.4C103.9,14.1,103.9,14.2,103.9,14.3z"/>
</g>
</svg>
